PathFileType	4	(X/Y/Z)	D:\TRACE\spotREDO_2-26-24\spot_justBody_Motion_1_4-platform.trc
DataRate	CameraRate	NumFrames	NumMarkers	Units	OrigDataRate	OrigDataStartFrame	OrigNumFrames
100.00	100.00	      48	5	mm	100.00	1751	      7000
Frame#	Time	Left_Front			Right_Front			Left_Aft			Right_Aft			Post			
		X1	Y1	Z1	X2	Y2	Z2	X3	Y3	Z3	X4	Y4	Z4	X5	Y5	Z5	

1751	17.500	-661.07751	-28.16869	-581.33600	753.57904	-15.76087	-496.82587	-732.59320	30.01039	636.32825	838.14111	37.74012	639.40533	48.15390	582.07220	-1012.91370	
1752	17.510	-660.18799	-28.04098	-581.31842	754.32886	-15.73776	-496.84570	-731.71021	29.74997	636.23126	838.70782	37.52610	639.73676	49.06221	582.44574	-1012.78461	
1753	17.520	-659.57025	-28.03668	-581.30426	755.34052	-15.48136	-496.90454	-731.05023	29.72119	636.42224	839.28369	37.52550	639.80200	50.01455	582.47253	-1012.47626	
1754	17.530	-658.71606	-27.92736	-581.16406	755.87695	-15.34766	-496.98376	-730.41174	29.76169	636.38110	840.23602	37.33160	639.54730	50.51930	582.44330	-1012.40686	
1755	17.540	-658.09338	-27.75103	-581.17456	756.39844	-15.18559	-496.93839	-729.62732	29.43191	636.28467	841.08514	37.19098	639.62628	51.54542	582.67957	-1012.15668	
1756	17.550	-657.32245	-27.50109	-581.13324	757.42468	-15.18789	-496.80118	-728.91113	29.64489	636.50372	841.48590	36.97639	639.72351	52.29739	582.96857	-1012.28497	
1757	17.560	-656.54181	-27.28180	-580.98218	758.11768	-14.91115	-496.84561	-728.32617	29.76185	636.64056	842.05786	36.60517	639.69031	52.60838	583.39600	-1012.44531	
1758	17.570	-656.09052	-27.27606	-580.94299	758.66992	-14.92469	-496.71539	-727.65527	29.15298	636.65881	842.68158	36.64715	639.74878	53.29893	583.60992	-1012.23285	
1759	17.580	-655.44666	-27.24021	-580.96576	759.06573	-14.81199	-496.57458	-726.97449	29.02439	636.87482	843.48218	36.52653	639.88953	53.76498	583.77246	-1012.04175	
1760	17.590	-654.55878	-26.94711	-580.91174	759.79822	-14.69597	-496.88480	-726.21295	28.93947	636.83893	844.28455	36.50128	639.93817	54.38421	584.02484	-1011.66174	
1761	17.600	-654.07971	-26.83637	-581.00159	760.56592	-14.39005	-496.74811	-725.58234	28.54977	636.81921	844.88361	36.15271	639.99365	55.67577	584.45715	-1011.09418	
1762	17.610	-653.49475	-26.69284	-580.95007	761.40350	-14.39320	-496.50906	-725.06342	28.39422	636.86224	845.22333	36.10860	640.05603	56.06562	584.56396	-1011.19171	
1763	17.620	-652.89191	-26.58896	-580.90063	761.91254	-14.36960	-496.46075	-724.66852	28.45739	636.91418	845.80872	35.93406	640.13690	56.25578	584.91461	-1011.02039	
1764	17.630	-652.34839	-26.43004	-580.94812	762.47137	-14.26545	-496.48349	-723.98792	28.27162	636.97205	846.81287	36.06369	640.25073	56.81944	585.01935	-1010.77948	
1765	17.640	-651.87769	-26.12195	-580.91840	762.97601	-14.12103	-496.41391	-723.08527	27.69838	636.95105	847.43921	35.68102	640.04163	57.47003	585.37445	-1010.38696	
1766	17.650	-651.28162	-25.98490	-580.85187	763.40015	-14.04107	-496.35947	-722.54724	27.53023	637.00885	847.74677	35.76075	640.22131	58.19234	585.93091	-1009.91638	
1767	17.660	-650.69403	-25.92220	-580.78021	763.92194	-13.84542	-496.24637	-722.13690	27.46386	636.97736	848.02374	35.59740	640.24506	58.71938	586.05847	-1009.80444	
1768	17.670	-650.26746	-25.73413	-580.69745	764.32379	-13.42898	-496.24030	-721.96448	27.32497	637.13611	848.60107	35.10339	640.30829	58.88781	586.50977	-1009.86060	
1769	17.680	-649.75659	-25.54496	-580.59851	764.95300	-13.24143	-496.23560	-721.27313	27.15267	637.19586	849.00342	34.92535	640.41785	59.22683	586.71899	-1009.81537	
1770	17.690	-649.28931	-25.37534	-580.56586	765.34711	-13.11000	-496.20068	-720.91022	26.84074	637.13397	849.50464	34.83018	640.40668	59.78545	587.05884	-1009.67120	
1771	17.700	-649.06927	-25.25100	-580.63428	765.63397	-13.07935	-496.24631	-720.39172	26.72930	637.24597	849.93060	34.63541	640.49109	60.40200	587.25580	-1009.48547	
1772	17.710	-648.75806	-25.05268	-580.54749	765.98914	-12.85489	-496.17343	-720.03247	26.59660	637.36230	850.40997	34.14777	640.51837	60.73199	587.74365	-1009.26050	
1773	17.720	-648.30029	-24.75142	-580.41156	766.35718	-12.66568	-496.06598	-719.77991	26.44574	637.51733	850.65887	34.11914	640.69495	61.01741	588.08423	-1008.89636	
1774	17.730	-647.99872	-24.54450	-580.33173	766.65369	-12.59889	-495.96127	-719.48474	26.16029	637.64661	850.87872	33.99387	640.75476	61.43675	588.49750	-1008.41437	
1775	17.740	-647.71521	-24.28282	-580.38397	767.07013	-12.39165	-495.87509	-719.19318	25.87864	637.78717	851.19769	33.88169	640.75409	61.54470	588.84192	-1008.11157	
1776	17.750	-647.54572	-24.02870	-580.37427	767.45599	-11.97922	-495.92487	-718.96552	25.62290	637.85803	851.38074	33.52860	640.65833	61.95746	589.07935	-1007.81696	
1777	17.760	-647.23340	-23.87400	-580.31744	767.63696	-11.72411	-496.00681	-718.67670	25.41681	637.91406	851.84442	33.08839	640.75995	61.87229	589.36908	-1007.58435	
1778	17.770	-647.03607	-23.59855	-580.19598	767.77216	-11.59055	-495.94446	-718.40051	25.29791	637.98706	851.93604	32.95397	640.98938	61.92879	589.78674	-1007.27063	
1779	17.780	-646.88281	-23.41051	-580.14435	767.83881	-11.40345	-495.86774	-718.28174	25.18414	638.00763	851.92548	32.76973	640.97247	62.27218	590.33496	-1006.90594	
1780	17.790	-646.87274	-23.15755	-580.10645	767.94727	-11.21681	-495.80649	-718.17578	24.84490	637.94708	852.00311	32.61200	641.05865	62.49784	590.79877	-1006.53015	
1781	17.800	-646.79266	-23.02231	-580.05573	768.07855	-11.05071	-495.71902	-718.02582	24.63761	638.02643	852.14502	32.25064	641.00757	62.54768	591.05267	-1006.34546	
1782	17.810	-646.69208	-22.82644	-579.95563	768.18768	-10.95543	-495.62741	-717.85199	24.40484	638.06287	852.18524	32.09005	641.13031	62.72184	591.13928	-1006.29639	
1783	17.820	-646.53223	-22.58682	-579.91687	768.24738	-10.79788	-495.55072	-717.86353	24.13081	638.05841	852.14386	32.02953	641.25330	62.91368	591.44922	-1006.17969	
1784	17.830	-646.50177	-22.43558	-579.89185	768.21924	-10.64037	-495.53760	-717.68024	23.95126	638.04126	852.19916	31.89655	641.31738	62.95103	591.99683	-1005.98700	
1785	17.840	-646.43005	-22.18102	-579.92725	768.21759	-10.39349	-495.54932	-717.68127	23.26870	638.36169	852.27142	31.68073	641.36115	62.99127	592.37714	-1005.86157	
1786	17.850	-646.33362	-21.97537	-579.91425	768.32324	-10.37233	-495.40414	-717.82532	23.65807	638.33777	852.44971	31.45929	641.48865	63.14876	592.78845	-1005.61090	
1787	17.860	-646.34357	-21.76837	-579.86896	768.36316	-10.15931	-495.35736	-717.86798	23.52536	638.41016	852.57898	31.09340	641.67407	62.90958	593.01654	-1005.31787	
1788	17.870	-646.26099	-21.57573	-579.79492	768.22839	-9.87363	-495.43951	-717.89148	23.39132	638.46698	852.63873	30.83353	641.72162	62.78411	593.35773	-1004.96130	
1789	17.880	-646.27277	-21.38318	-579.76563	768.20056	-9.78193	-495.35583	-717.99023	23.11671	638.48792	852.67126	30.77544	641.81122	62.70623	593.61957	-1004.70624	
1790	17.890	-646.39001	-21.06752	-579.71417	768.24127	-9.38910	-495.18982	-718.02826	22.88318	638.50043	852.58160	30.53590	641.83240	63.02711	594.26904	-1003.86053	
1791	17.900	-646.49744	-20.65279	-579.62866	768.15051	-9.17725	-495.30124	-718.03845	22.65159	638.55957	852.59229	30.37887	641.95691	63.32711	594.93958	-1003.36951	
1792	17.910	-646.54193	-20.37264	-579.49518	768.12219	-8.85686	-495.25952	-717.95953	22.27894	638.74463	852.54077	30.26519	642.04742	62.78788	595.31818	-1003.57794	
1793	17.920	-646.69598	-20.09105	-579.40283	768.04877	-8.55608	-495.19107	-717.94336	22.13874	638.82336	852.17737	29.83495	642.02179	62.72833	595.73602	-1003.00812	
1794	17.930	-646.61908	-19.87639	-579.21661	768.09796	-8.54461	-495.01813	-718.13409	21.79504	638.73920	852.53564	28.84278	642.13843	62.60041	596.18262	-1002.75153	
1795	17.940	-646.91125	-19.77840	-579.33685	767.98029	-8.41996	-494.91568	-718.21442	21.02571	638.92065	852.20313	28.83000	642.27637	62.26976	596.58795	-1002.39648	
1796	17.950	-647.28168	-19.56261	-579.26819	767.72119	-8.08246	-495.05859	-718.50684	20.84744	639.14301	851.79559	28.72146	642.36334	61.81176	596.94525	-1002.06891	
1797	17.960	-647.52991	-19.45060	-579.28900	767.35535	-7.86698	-494.93665	-718.66199	21.14043	639.39722	851.35608	28.54130	642.47076	61.64733	597.36975	-1001.94031	
1798	17.970	-647.81549	-19.16306	-579.23975	766.95251	-7.74042	-494.82895	-719.16284	20.60212	639.26324	851.04651	28.29425	642.44324	61.38583	597.99561	-1001.59454	
